# xmcd
# 
# Track frame offsets:
#     150
#     18142
#     31730
#     44427
#     60407
#     75155
#     84362
#     99942
#     112310
#     129907
#     147952
#     155725
# 
# Disc length: 2234
# 
# Revision: 4
# Processed by: cddbd v1.5.2PL0 Copyright (c) Steve Scherf et al.
# Submitted via: BonkEnc v1.0.8
# 
DISCID=8708b80c
DTITLE=Stefano Rosso - I grandi successi originali cd1
DYEAR=2000
DGENRE=Pop
TTITLE0=E allora senti cosa fò
TTITLE1=Anche se fosse peggio
TTITLE2=C'era una volta e ancora c'e
TTITLE3=Colpo di stato
TTITLE4=Compleanno
TTITLE5=Domani è un altro giorno
TTITLE6=Letto 26
TTITLE7=E intanto il sole si nasconde
TTITLE8=Il circo
TTITLE9=Bologna 77
TTITLE10=L'osteria del tempo perso
TTITLE11=La banda degli zulu
EXTD=YEAR: 2000
EXTT0=
EXTT1=
EXTT2=
EXTT3=
EXTT4=
EXTT5=
EXTT6=
EXTT7=
EXTT8=
EXTT9=
EXTT10=
EXTT11=
PLAYORDER=
